<?xml version="1.0" encoding="utf-8"?>
<!-- Generator: Adobe Illustrator 25.1.0, SVG Export Plug-In . SVG Version: 6.00 Build 0)  -->
<svg version="1.1" baseProfile="tiny" id="Capa_1" xmlns="http://www.w3.org/2000/svg" xmlns:xlink="http://www.w3.org/1999/xlink"
	 x="0px" y="0px" viewBox="0 0 464 464" overflow="visible" xml:space="preserve">
<g>
	<path fill="#FFD7A3" d="M388.6,437l-10.1-81c-1.5-12.2-9.9-22.5-21.6-26.4l-39-13c-5.4-1.8-11.2-0.6-15.4,2.9l-11.5-3.8
		c-6.5-2.2-10.9-8.3-10.9-15.2v-25.8l34.5-14.4c17.9-7.5,29.5-24.9,29.5-44.3v-8c13.3,0,24-10.7,24-24c0-6-2.2-11.4-5.8-15.6
		C369,143.6,388.1,65.4,368,32l8-32c0,0-84,2-128,16l16-16c0,0-112.5,0-136,40l0,0c0,0-40-0.3-40,48c0,17.7,9.9,61.9,14.1,80
		c-3.8,4.2-6.1,9.8-6.1,16c0,13.3,10.7,24,24,24v8c0,19.4,11.7,36.9,29.5,44.3l34.5,14.4v25.8c0,6.9-4.4,13-10.9,15.2l-11.5,3.8
		c-4.1-3.5-10-4.7-15.4-2.9l-39,13C95.4,333.5,87,343.8,85.5,356l-10.1,81c-1.8,14.3,9.4,27,23.8,27h0.2h265.2h0.2
		C379.2,464,390.4,451.3,388.6,437z"/>
	<g>
		<path fill="#FDC88E" d="M280,274.7l-96,0v25.8c0,5.8-3.2,10.8-8,13.7C243.1,325.9,280,274.7,280,274.7z"/>
	</g>
	<g>
		<path fill="#734A3E" d="M104,176c0,0-16-65.5-16-88c0-48.3,40-48,40-48l0,0C151.5,0,264,0,264,0l-16,16C292,2,376,0,376,0l-8,32
			c24,40-8,144-8,144H104z"/>
	</g>
	<g>
		<path fill="#623F33" d="M264,0c0,0-112.5,0-136,40l0,0c0,0-40-0.3-40,48c0,22.5,16,88,16,88S270.3,101.7,376,0c0,0-84,2-128,16
			L264,0z"/>
	</g>
	<path fill="#FFE1B2" d="M344,160v-16c0-22.1-17.9-40-40-40H160c-22.1,0-40,17.9-40,40v16c-13.3,0-24,10.7-24,24s10.7,24,24,24v8
		c0,19.4,11.7,36.9,29.5,44.3l51.7,21.5c9.8,4.1,20.2,6.2,30.8,6.2l0,0c10.6,0,21-2.1,30.8-6.2l51.7-21.5
		c17.9-7.5,29.5-24.9,29.5-44.3v-8c13.3,0,24-10.7,24-24S357.3,160,344,160z"/>
	<g>
		<path fill="#623F33" d="M176,192L176,192c-4.4,0-8-3.6-8-8v-8c0-4.4,3.6-8,8-8l0,0c4.4,0,8,3.6,8,8v8C184,188.4,180.4,192,176,192
			z"/>
	</g>
	<g>
		<path fill="#623F33" d="M288,192L288,192c-4.4,0-8-3.6-8-8v-8c0-4.4,3.6-8,8-8l0,0c4.4,0,8,3.6,8,8v8C296,188.4,292.4,192,288,192
			z"/>
	</g>
	<g>
		<g>
			<path fill="#E4B07B" d="M232,248.2c-14.2,0-27.5-3.5-36.5-9.6c-3.7-2.5-4.6-7.5-2.1-11.1c2.5-3.6,7.5-4.6,11.1-2.1
				c6.3,4.3,16.6,6.8,27.5,6.8s21.2-2.6,27.5-6.8c3.7-2.5,8.6-1.5,11.1,2.1c2.5,3.7,1.5,8.6-2.1,11.1
				C259.5,244.7,246.2,248.2,232,248.2z"/>
		</g>
	</g>
	<g>
		<path fill="#00BEA4" d="M388.6,437l-10.1-81c-1.5-12.2-9.9-22.5-21.6-26.4l-39-13c-6.8-2.3-14.5,0.2-18.3,6.2
			C285.3,345.2,260.4,360,232,360s-53.3-14.8-67.5-37.2c-3.8-6.1-11.5-8.5-18.3-6.2l-39,13C95.4,333.5,87,343.8,85.5,356l-10.1,81
			c-1.8,14.3,9.4,27,23.8,27h265.6C379.2,464,390.4,451.3,388.6,437z"/>
	</g>
	<g>
		<path fill="#00AB9A" d="M92.2,340.2c-3.6,4.5-5.9,9.9-6.7,15.8l-10.1,81c-1.8,14.3,9.4,27,23.8,27H144v-52.1
			c0-7.7-2.8-15.1-7.8-21L92.2,340.2z"/>
	</g>
	<g>
		<path fill="#00AB9A" d="M371.8,340.2c3.6,4.5,5.9,9.9,6.7,15.8l10.1,81c1.8,14.3-9.4,27-23.8,27H320v-52.1c0-7.7,2.8-15.1,7.8-21
			L371.8,340.2z"/>
	</g>
	<path fill="#FFD7A3" d="M162,243.7c-6.5-6.9-10-16.1-10-25.6v-90.7c25.5-1.9,105.7-8.9,152-23.4H160c-2.8,0-5.4,0.3-8,0.9v-0.1
		c-18.3,3.7-32,19.8-32,39.2v16c-13.3,0-24,10.7-24,24s10.7,24,24,24v8c0,19.4,11.7,36.9,29.5,44.3l51.7,21.5c2.5,1.1,5.1,2,7.7,2.7
		C186.1,267.9,170.9,253.3,162,243.7z"/>
</g>
</svg>
