<svg id="Capa_1" enable-background="new 0 0 512 512" height="512" viewBox="0 0 512 512" width="512" xmlns="http://www.w3.org/2000/svg"><g><g><path d="m117.42 0c-25.602 0-46.82 20.755-46.82 46.358l6.287 330.717 381.962-30.105v-326.366c0-11.379-9.225-20.604-20.604-20.604z" fill="#ff8086"/></g><g><g><g><path d="m76.877 46.358c0-25.603 20.755-46.358 46.358-46.358h-23.726c-25.602 0-46.358 20.755-46.358 46.358v341.922l10.429 14.528 3.06 3.472 10.237-58.954z" fill="#f46c7a"/></g></g></g><g><path d="m437.519 443.575-9.187-35.577 9.187-30.503h16.179c2.845 0 5.151-2.306 5.151-5.151v-25.754c0-2.845-2.306-5.151-5.151-5.151h-354.189c-8.217 0-15.935 2.138-22.628 5.888-14.16 7.934-5.081 23.084-5.081 40.47v45.477c0 25.603 18.677 46.358 44.28 46.358h39.796l46.484-14.311 44.007 14.311h207.33c2.845 0 5.151-2.306 5.151-5.151v-25.755c0-2.845-2.306-5.151-5.151-5.151z" fill="#db4655"/></g><g><path d="m76.887 433.273v-85.937c-14.16 7.934-23.735 23.075-23.735 40.461v45.477c0 25.603 20.755 46.358 46.358 46.358h23.735c-25.603-.001-46.358-20.756-46.358-46.359z" fill="#ce344a"/></g><g><path d="m102.64 433.575v-46.08c0-5.523 7.077-10 12.6-10h322.279v66.08h-321.919c-5.523 0-12.96-4.477-12.96-10z" fill="#eef5f6"/></g><g><path d="m109.482 433.273v-45.477c0-5.681 4.621-10.302 10.302-10.302h-20.274c-5.681 0-10.302 4.621-10.302 10.302v45.477c0 5.681 4.621 10.302 10.302 10.302h20.274c-5.681 0-10.302-4.621-10.302-10.302z" fill="#deecf1"/></g><g><path d="m246.367 410.535v96.305c0 4.386-5.133 6.766-8.48 3.931l-34.075-28.86c-1.553-1.315-3.829-1.315-5.381 0l-21.786 18.452-6.144 2.189c-3.347 2.835-8.48.456-8.48-3.931l14.624-88.085h69.722z" fill="#c3ddff"/></g><g><path d="m176.645 410.535h-20.768v96.304c0 4.386 5.133 6.765 8.48 3.931l12.289-10.408v-89.827z" fill="#a4ccff"/></g><path d="m437.518 402.808h-49.12c-4.268 0-7.726 3.459-7.726 7.726s3.459 7.726 7.726 7.726h49.12z" fill="#a7c7d3"/><g><path d="m350.571 418.261h-229.512c-4.268 0-7.726-3.459-7.726-7.726s3.459-7.726 7.726-7.726h229.512c4.268 0 7.726 3.459 7.726 7.726s-3.459 7.726-7.726 7.726z" fill="#a7c7d3"/></g><g><path d="m367.134 178.654h-202.454c-5.523 0-12.56-4.477-12.56-10v-91.672c0-5.523 8.091-10 13.614-10h201.4c5.523 0 10 4.477 10 10v91.672c0 5.523-4.477 10-10 10z" fill="#ffc0c6"/></g><g><path d="m159.071 168.352v-91.068c0-5.69 4.612-10.302 10.302-10.302h-24.205c-5.69 0-10.302 4.612-10.302 10.302v91.068c0 5.69 4.612 10.302 10.302 10.302h24.205c-5.689 0-10.302-4.612-10.302-10.302z" fill="#f9acb7"/></g><g><path d="m319.047 111.218h-126.094c-4.268 0-7.726-3.459-7.726-7.726s3.459-7.726 7.726-7.726h126.094c4.268 0 7.726 3.459 7.726 7.726s-3.459 7.726-7.726 7.726z" fill="#db4655"/></g><g><path d="m319.047 149.871h-126.094c-4.268 0-7.726-3.459-7.726-7.726s3.459-7.726 7.726-7.726h126.094c4.268 0 7.726 3.459 7.726 7.726s-3.459 7.726-7.726 7.726z" fill="#db4655"/></g><g><path d="m375.159 223.467h-238.319c-4.268 0-7.726-3.459-7.726-7.726s3.459-7.726 7.726-7.726h238.319c4.268 0 7.726 3.459 7.726 7.726.001 4.267-3.458 7.726-7.726 7.726z" fill="#db4655"/></g></g></svg>